<svg width="282" height="282" viewBox="0 0 282 282" fill="none" xmlns="http://www.w3.org/2000/svg">
<g clip-path="url(#clip0_64_427)">
<g filter="url(#filter0_d_64_427)">
<path fill-rule="evenodd" clip-rule="evenodd" d="M151.781 31.4672C151.781 43.2826 154.293 50.0741 156.613 56.3477C158.991 62.7771 161.168 68.6624 160.233 78.8536C161.545 81.9867 162.465 85.3989 162.916 89.1021C164.98 106.049 161.269 118.363 154.425 127.941C163.704 130.163 172.47 133.256 180.841 136.209C197.868 142.216 213.256 147.645 227.99 143.993C243.064 140.256 250.629 139.793 253.923 147.173C254.609 147.009 255.324 146.862 256.073 146.737C269.545 144.492 270.416 192.478 241.519 221.513C227.017 245.72 198.152 267.496 140.803 267.496C46.5473 267.496 15.8284 180.551 66.7472 142.387C64.6661 141.72 62.821 141.248 61.2117 141.248C59.8394 141.248 58.2956 141.42 56.7519 141.591C52.1205 142.106 47.4891 142.62 47.4891 138.504C47.4891 135.468 55.8827 126.557 65.243 119.197C64.4915 119.259 63.6979 119.292 62.8584 119.292C47.4891 119.292 47.4891 97.3357 47.4891 80.8686C47.4891 79.0971 47.4891 77.8974 48.0057 76.9926C49.0898 75.0938 52.4489 74.4939 62.8574 72.6352L62.8584 72.635L62.8616 72.6345L62.8657 72.6337L62.8697 72.633L62.8756 72.632C64.0289 72.426 65.0955 72.2355 66.0828 72.0617C66.8168 70.2537 67.7707 68.4875 68.9705 66.7802C68.2622 66.8373 61.2347 67.3109 52.9781 64.4015C47.9467 62.6285 42.0603 58.9359 42.0603 58.9359L42.063 58.936L42 58.9124C50.6086 58.9124 57.7171 53.662 64.5018 48.6507C70.6954 44.0761 76.6191 39.7007 83.1679 39.7007L58.4672 28.7226C87.0102 15.5489 106.954 25.0633 113.358 31.4672L113.355 31.4642L102.38 20.4891L107.869 15C115.682 24.1154 122.877 27.6701 129.455 30.9196C136.74 34.5187 143.268 37.7434 149.037 47.7349C149.063 44.8567 149.637 37.9002 151.781 31.4672Z" fill="#FFA500"/>
<path fill-rule="evenodd" clip-rule="evenodd" d="M151.781 31.4672C151.781 43.2826 154.293 50.0741 156.613 56.3477C158.991 62.7771 161.168 68.6624 160.233 78.8536C161.545 81.9867 162.465 85.3989 162.916 89.1021C164.98 106.049 161.269 118.363 154.425 127.941C163.704 130.163 172.47 133.256 180.841 136.209C197.868 142.216 213.256 147.645 227.99 143.993C243.064 140.256 250.629 139.793 253.923 147.173C254.609 147.009 255.324 146.862 256.073 146.737C269.545 144.492 270.416 192.478 241.519 221.513C227.017 245.72 198.152 267.496 140.803 267.496C46.5473 267.496 15.8284 180.551 66.7472 142.387C64.6661 141.72 62.821 141.248 61.2117 141.248C59.8394 141.248 58.2956 141.42 56.7519 141.591C52.1205 142.106 47.4891 142.62 47.4891 138.504C47.4891 135.468 55.8827 126.557 65.243 119.197C64.4915 119.259 63.6979 119.292 62.8584 119.292C47.4891 119.292 47.4891 97.3357 47.4891 80.8686C47.4891 79.0971 47.4891 77.8974 48.0057 76.9926C49.0898 75.0938 52.4489 74.4939 62.8574 72.6352L62.8584 72.635L62.8616 72.6345L62.8657 72.6337L62.8697 72.633L62.8756 72.632C64.0289 72.426 65.0955 72.2355 66.0828 72.0617C66.8168 70.2537 67.7707 68.4875 68.9705 66.7802C68.2622 66.8373 61.2347 67.3109 52.9781 64.4015C47.9467 62.6285 42.0603 58.9359 42.0603 58.9359L42.063 58.936L42 58.9124C50.6086 58.9124 57.7171 53.662 64.5018 48.6507C70.6954 44.0761 76.6191 39.7007 83.1679 39.7007L58.4672 28.7226C87.0102 15.5489 106.954 25.0633 113.358 31.4672L113.355 31.4642L102.38 20.4891L107.869 15C115.682 24.1154 122.877 27.6701 129.455 30.9196C136.74 34.5187 143.268 37.7434 149.037 47.7349C149.063 44.8567 149.637 37.9002 151.781 31.4672Z" fill="url(#paint0_radial_64_427)"/>
</g>
<path fill-rule="evenodd" clip-rule="evenodd" d="M156.613 56.3477C154.293 50.0741 151.781 43.2826 151.781 31.4672C149.637 37.9002 149.063 44.8567 149.037 47.7349C143.268 37.7434 136.74 34.5187 129.455 30.9196C122.877 27.6701 115.682 24.1154 107.869 15C110.064 25.9781 112.443 30.5523 113.358 31.4672C106.954 25.0633 87.0102 15.5489 58.4672 28.7226C73.8365 28.7226 81.3382 36.0414 83.1679 39.7007C76.6191 39.7007 70.6954 44.0761 64.5018 48.6507C57.7171 53.662 50.6086 58.9124 42 58.9124C52.7781 62.9542 60.9108 65.6733 68.9953 66.745C58.0302 82.296 67.5116 102.751 77.5939 115.215C81.8072 120.424 85.5062 125.816 88.9519 130.881C9.30235 158.143 35.0967 267.496 140.803 267.496C251.522 267.496 256.073 186.33 256.073 163.204C256.073 140.079 250.134 138.504 227.99 143.993C213.256 147.645 197.868 142.216 180.841 136.209C172.47 133.256 163.704 130.163 154.425 127.941C161.269 118.363 164.98 106.049 162.916 89.1021C162.465 85.3989 161.545 81.9867 160.233 78.8536C161.168 68.6624 158.991 62.7771 156.613 56.3477Z" fill="#FFA500"/>
<path fill-rule="evenodd" clip-rule="evenodd" d="M156.613 56.3477C154.293 50.0741 151.781 43.2826 151.781 31.4672C149.637 37.9002 149.063 44.8567 149.037 47.7349C143.268 37.7434 136.74 34.5187 129.455 30.9196C122.877 27.6701 115.682 24.1154 107.869 15C110.064 25.9781 112.443 30.5523 113.358 31.4672C106.954 25.0633 87.0102 15.5489 58.4672 28.7226C73.8365 28.7226 81.3382 36.0414 83.1679 39.7007C76.6191 39.7007 70.6954 44.0761 64.5018 48.6507C57.7171 53.662 50.6086 58.9124 42 58.9124C52.7781 62.9542 60.9108 65.6733 68.9953 66.745C58.0302 82.296 67.5116 102.751 77.5939 115.215C81.8072 120.424 85.5062 125.816 88.9519 130.881C9.30235 158.143 35.0967 267.496 140.803 267.496C251.522 267.496 256.073 186.33 256.073 163.204C256.073 140.079 250.134 138.504 227.99 143.993C213.256 147.645 197.868 142.216 180.841 136.209C172.47 133.256 163.704 130.163 154.425 127.941C161.269 118.363 164.98 106.049 162.916 89.1021C162.465 85.3989 161.545 81.9867 160.233 78.8536C161.168 68.6624 158.991 62.7771 156.613 56.3477Z" fill="url(#paint1_radial_64_427)"/>
<path fill-rule="evenodd" clip-rule="evenodd" d="M156.613 56.3477C154.293 50.0741 151.781 43.2826 151.781 31.4672C149.637 37.9002 149.063 44.8567 149.037 47.7349C143.268 37.7434 136.74 34.5187 129.455 30.9196C122.877 27.6701 115.682 24.1154 107.869 15C110.064 25.9781 112.443 30.5523 113.358 31.4672C106.954 25.0633 87.0102 15.5489 58.4672 28.7226C73.8365 28.7226 81.3382 36.0414 83.1679 39.7007C76.6191 39.7007 70.6954 44.0761 64.5018 48.6507C57.7171 53.662 50.6086 58.9124 42 58.9124C52.7781 62.9542 60.9108 65.6733 68.9953 66.745C58.0302 82.296 67.5116 102.751 77.5939 115.215C81.8072 120.424 85.5062 125.816 88.9519 130.881C9.30235 158.143 35.0967 267.496 140.803 267.496C251.522 267.496 256.073 186.33 256.073 163.204C256.073 140.079 250.134 138.504 227.99 143.993C213.256 147.645 197.868 142.216 180.841 136.209C172.47 133.256 163.704 130.163 154.425 127.941C161.269 118.363 164.98 106.049 162.916 89.1021C162.465 85.3989 161.545 81.9867 160.233 78.8536C161.168 68.6624 158.991 62.7771 156.613 56.3477Z" fill="url(#paint2_linear_64_427)"/>
<mask id="mask0_64_427" style="mask-type:alpha" maskUnits="userSpaceOnUse" x="42" y="15" width="215" height="253">
<path fill-rule="evenodd" clip-rule="evenodd" d="M156.613 56.3477C154.293 50.0741 151.781 43.2826 151.781 31.4672C149.637 37.9002 149.063 44.8567 149.037 47.7349C143.268 37.7434 136.74 34.5187 129.455 30.9196C122.877 27.6701 115.682 24.1154 107.869 15C110.064 25.9781 112.443 30.5523 113.358 31.4672C106.954 25.0633 87.0102 15.5489 58.4672 28.7226C73.8365 28.7226 81.3382 36.0414 83.1679 39.7007C76.6191 39.7007 70.6954 44.0761 64.5018 48.6507C57.7171 53.662 50.6086 58.9124 42 58.9124C52.7781 62.9542 60.9108 65.6733 68.9953 66.745C58.0302 82.296 67.5116 102.751 77.5939 115.215C81.8072 120.424 85.5062 125.816 88.9519 130.881C9.30235 158.143 35.0967 267.496 140.803 267.496C251.522 267.496 256.073 186.33 256.073 163.204C256.073 140.079 250.134 138.504 227.99 143.993C213.256 147.645 197.868 142.216 180.841 136.209C172.47 133.256 163.704 130.163 154.425 127.941C161.269 118.363 164.98 106.049 162.916 89.1021C162.465 85.3989 161.545 81.9867 160.233 78.8536C161.168 68.6624 158.991 62.7771 156.613 56.3477Z" fill="#FFA500"/>
<path fill-rule="evenodd" clip-rule="evenodd" d="M156.613 56.3477C154.293 50.0741 151.781 43.2826 151.781 31.4672C149.637 37.9002 149.063 44.8567 149.037 47.7349C143.268 37.7434 136.74 34.5187 129.455 30.9196C122.877 27.6701 115.682 24.1154 107.869 15C110.064 25.9781 112.443 30.5523 113.358 31.4672C106.954 25.0633 87.0102 15.5489 58.4672 28.7226C73.8365 28.7226 81.3382 36.0414 83.1679 39.7007C76.6191 39.7007 70.6954 44.0761 64.5018 48.6507C57.7171 53.662 50.6086 58.9124 42 58.9124C52.7781 62.9542 60.9108 65.6733 68.9953 66.745C58.0302 82.296 67.5116 102.751 77.5939 115.215C81.8072 120.424 85.5062 125.816 88.9519 130.881C9.30235 158.143 35.0967 267.496 140.803 267.496C251.522 267.496 256.073 186.33 256.073 163.204C256.073 140.079 250.134 138.504 227.99 143.993C213.256 147.645 197.868 142.216 180.841 136.209C172.47 133.256 163.704 130.163 154.425 127.941C161.269 118.363 164.98 106.049 162.916 89.1021C162.465 85.3989 161.545 81.9867 160.233 78.8536C161.168 68.6624 158.991 62.7771 156.613 56.3477Z" fill="url(#paint3_radial_64_427)"/>
</mask>
<g mask="url(#mask0_64_427)">
<path d="M201.182 267.496C157.27 272.985 127.08 240.051 129.825 201.628L261.562 168.693L261.562 267.496H201.182Z" fill="url(#paint4_linear_64_427)"/>
<path d="M107.869 157.715C129.825 153.599 143.547 143.993 154.354 127.932L201.182 135.759C201.182 135.759 168.248 163.204 107.869 157.715Z" fill="url(#paint5_linear_64_427)"/>
<path d="M99.6468 51.4911C91.4015 56.1679 65.0553 60.1192 42.0603 58.9359C42.0603 58.9359 47.9467 62.6285 52.9781 64.4015C61.6874 67.4705 69.0292 66.7752 69.0292 66.7752C85.8318 66.6963 96.442 56.553 99.6468 51.4911Z" fill="url(#paint6_linear_64_427)"/>
<path d="M58.4672 28.7226C84.8146 22.1358 98.7202 38.7859 102.38 47.9343C99.635 46.1046 91.9504 41.8964 83.1679 39.7007L58.4672 28.7226Z" fill="url(#paint7_linear_64_427)"/>
<path d="M124.336 39.7007C122.506 38.7859 117.749 35.8584 113.358 31.4672L102.38 20.4891L107.869 15C112.26 25.9781 120.676 36.0414 124.336 39.7007Z" fill="url(#paint8_linear_64_427)"/>
</g>
<path d="M80.1489 75.3795L80.1489 75.3795C81.8673 80.2891 82.0701 80.8686 85.9124 80.8686V108.314C78.2278 108.314 78.2278 119.292 62.8584 119.292C47.4891 119.292 47.4891 97.3357 47.4891 80.8686C47.4891 75.3795 47.4891 75.3796 62.8584 72.635C78.2277 69.8904 78.2278 69.8905 80.1489 75.3795Z" fill="#404040"/>
<path d="M80.1489 75.3795L80.1489 75.3795C81.8673 80.2891 82.0701 80.8686 85.9124 80.8686V108.314C78.2278 108.314 78.2278 119.292 62.8584 119.292C47.4891 119.292 47.4891 97.3357 47.4891 80.8686C47.4891 75.3795 47.4891 75.3796 62.8584 72.635C78.2277 69.8904 78.2278 69.8905 80.1489 75.3795Z" fill="url(#paint9_linear_64_427)"/>
<path d="M47.4891 138.504C47.4891 133.015 74.9343 108.314 85.9124 108.314C97.7875 108.314 96.8905 119.292 118.847 119.292C121.591 119.292 124.336 121.749 124.336 124.781C124.336 127.8 121.866 130.27 118.847 130.27C113.358 130.27 96.8905 146.737 85.9124 146.737C74.9343 146.737 66.7008 141.248 61.2117 141.248C55.7227 141.248 47.4891 143.993 47.4891 138.504Z" fill="#FF9122"/>
<path d="M47.4891 138.504C47.4891 133.015 74.9343 108.314 85.9124 108.314C97.7875 108.314 96.8905 119.292 118.847 119.292C121.591 119.292 124.336 121.749 124.336 124.781C124.336 127.8 121.866 130.27 118.847 130.27C113.358 130.27 96.8905 146.737 85.9124 146.737C74.9343 146.737 66.7008 141.248 61.2117 141.248C55.7227 141.248 47.4891 143.993 47.4891 138.504Z" fill="url(#paint10_radial_64_427)"/>
<mask id="mask1_64_427" style="mask-type:alpha" maskUnits="userSpaceOnUse" x="47" y="108" width="78" height="39">
<path d="M47.4891 138.504C47.4891 133.015 74.9343 108.314 85.9124 108.314C97.7875 108.314 96.8905 119.292 118.847 119.292C121.591 119.292 124.336 121.749 124.336 124.781C124.336 127.8 121.866 130.27 118.847 130.27C113.358 130.27 96.8905 146.737 85.9124 146.737C74.9343 146.737 66.7008 141.248 61.2117 141.248C55.7227 141.248 47.4891 143.993 47.4891 138.504Z" fill="#FF9122"/>
<path d="M47.4891 138.504C47.4891 133.015 74.9343 108.314 85.9124 108.314C97.7875 108.314 96.8905 119.292 118.847 119.292C121.591 119.292 124.336 121.749 124.336 124.781C124.336 127.8 121.866 130.27 118.847 130.27C113.358 130.27 96.8905 146.737 85.9124 146.737C74.9343 146.737 66.7008 141.248 61.2117 141.248C55.7227 141.248 47.4891 143.993 47.4891 138.504Z" fill="url(#paint11_radial_64_427)"/>
</mask>
<g mask="url(#mask1_64_427)">
<path d="M107.869 127.526C96.8906 124.781 94.1461 108.314 85.9125 108.314H124.336V146.737H85.9125C102.38 143.993 107.869 127.526 107.869 127.526Z" fill="#F56600"/>
</g>
<path d="M94.146 75.3795L94.146 75.3795C91.6912 80.2891 91.4015 80.8686 85.9124 80.8686V108.314C96.8905 108.314 96.8905 119.292 118.847 119.292C140.803 119.292 140.803 97.3357 140.803 80.8686C140.803 75.3795 140.803 75.3796 118.847 72.635C96.8906 69.8904 96.8905 69.8905 94.146 75.3795Z" fill="#404040"/>
<path d="M94.146 75.3795L94.146 75.3795C91.6912 80.2891 91.4015 80.8686 85.9124 80.8686V108.314C96.8905 108.314 96.8905 119.292 118.847 119.292C140.803 119.292 140.803 97.3357 140.803 80.8686C140.803 75.3795 140.803 75.3796 118.847 72.635C96.8906 69.8904 96.8905 69.8905 94.146 75.3795Z" fill="url(#paint12_linear_64_427)"/>
<mask id="mask2_64_427" style="mask-type:alpha" maskUnits="userSpaceOnUse" x="129" y="146" width="137" height="100">
<path d="M129.825 207.117C126.937 184.016 142.075 146.737 192.949 154.971C239.71 162.539 239.606 149.482 256.073 146.737C272.54 143.993 270.18 216.293 217.648 237.307C176.482 253.774 134.971 248.285 129.825 207.117Z" fill="#FFA500"/>
<path d="M129.825 207.117C126.937 184.016 142.075 146.737 192.949 154.971C239.71 162.539 239.606 149.482 256.073 146.737C272.54 143.993 270.18 216.293 217.648 237.307C176.482 253.774 134.971 248.285 129.825 207.117Z" fill="url(#paint13_radial_64_427)"/>
</mask>
<g mask="url(#mask2_64_427)">
<rect x="42" y="124.781" width="225.051" height="142.715" fill="#FFA500"/>
<rect x="42" y="124.781" width="225.051" height="142.715" fill="url(#paint14_radial_64_427)"/>
<rect x="42" y="124.781" width="225.051" height="142.715" fill="url(#paint15_linear_64_427)"/>
</g>
</g>
<defs>
<filter id="filter0_d_64_427" x="31.4545" y="6.21212" width="251.23" height="280.618" filterUnits="userSpaceOnUse" color-interpolation-filters="sRGB">
<feFlood flood-opacity="0" result="BackgroundImageFix"/>
<feColorMatrix in="SourceAlpha" type="matrix" values="0 0 0 0 0 0 0 0 0 0 0 0 0 0 0 0 0 0 127 0" result="hardAlpha"/>
<feOffset dx="3.51515" dy="5.27273"/>
<feGaussianBlur stdDeviation="7.0303"/>
<feComposite in2="hardAlpha" operator="out"/>
<feColorMatrix type="matrix" values="0 0 0 0 0.108333 0 0 0 0 0.108333 0 0 0 0 0.108333 0 0 0 0.2 0"/>
<feBlend mode="normal" in2="BackgroundImageFix" result="effect1_dropShadow_64_427"/>
<feBlend mode="normal" in="SourceGraphic" in2="effect1_dropShadow_64_427" result="shape"/>
</filter>
<radialGradient id="paint0_radial_64_427" cx="0" cy="0" r="1" gradientUnits="userSpaceOnUse" gradientTransform="translate(153.125 171.744) rotate(28.2177) scale(129.833 219.564)">
<stop stop-color="#FFDD33"/>
<stop offset="1" stop-color="#FFDD33" stop-opacity="0"/>
</radialGradient>
<radialGradient id="paint1_radial_64_427" cx="0" cy="0" r="1" gradientUnits="userSpaceOnUse" gradientTransform="translate(63.9562 50.6788) rotate(48.3477) scale(278.108 486.938)">
<stop offset="0.114583" stop-color="#FFDD33"/>
<stop offset="1" stop-color="#FFDD33" stop-opacity="0"/>
</radialGradient>
<linearGradient id="paint2_linear_64_427" x1="88.6569" y1="116.547" x2="225.376" y2="230.866" gradientUnits="userSpaceOnUse">
<stop stop-color="#FFDD33" stop-opacity="0"/>
<stop offset="1" stop-color="#FF9500"/>
</linearGradient>
<radialGradient id="paint3_radial_64_427" cx="0" cy="0" r="1" gradientUnits="userSpaceOnUse" gradientTransform="translate(72.1898 45.1898) rotate(50.3759) scale(276.91 484.841)">
<stop stop-color="#FFDD33"/>
<stop offset="1" stop-color="#FFDD33" stop-opacity="0"/>
</radialGradient>
<linearGradient id="paint4_linear_64_427" x1="206.671" y1="226.328" x2="208.567" y2="266.367" gradientUnits="userSpaceOnUse">
<stop stop-color="#FF8000"/>
<stop offset="1" stop-color="#F77B00" stop-opacity="0"/>
<stop offset="1" stop-color="#FF8000" stop-opacity="0"/>
</linearGradient>
<linearGradient id="paint5_linear_64_427" x1="162.627" y1="128.917" x2="171.031" y2="149.544" gradientUnits="userSpaceOnUse">
<stop stop-color="#FF8000"/>
<stop offset="1" stop-color="#F77B00" stop-opacity="0"/>
<stop offset="1" stop-color="#FF8000" stop-opacity="0"/>
</linearGradient>
<linearGradient id="paint6_linear_64_427" x1="42.0603" y1="59.2743" x2="96.5317" y2="70.1873" gradientUnits="userSpaceOnUse">
<stop stop-color="#FF8000"/>
<stop offset="1" stop-color="#F75900" stop-opacity="0"/>
<stop offset="1" stop-color="#FF8000" stop-opacity="0"/>
</linearGradient>
<linearGradient id="paint7_linear_64_427" x1="58.4672" y1="36.698" x2="101.002" y2="42.0338" gradientUnits="userSpaceOnUse">
<stop stop-color="#FF8000"/>
<stop offset="1" stop-color="#F75900" stop-opacity="0"/>
<stop offset="1" stop-color="#FF8000" stop-opacity="0"/>
</linearGradient>
<linearGradient id="paint8_linear_64_427" x1="102.38" y1="26.3023" x2="123.922" y2="27.4355" gradientUnits="userSpaceOnUse">
<stop stop-color="#FF8000"/>
<stop offset="1" stop-color="#F75900" stop-opacity="0"/>
<stop offset="1" stop-color="#FF8000" stop-opacity="0"/>
</linearGradient>
<linearGradient id="paint9_linear_64_427" x1="66.7008" y1="70.8323" x2="66.7008" y2="119.292" gradientUnits="userSpaceOnUse">
<stop/>
<stop offset="1" stop-opacity="0"/>
</linearGradient>
<radialGradient id="paint10_radial_64_427" cx="0" cy="0" r="1" gradientUnits="userSpaceOnUse" gradientTransform="translate(72.3114 113.873) rotate(65.6974) scale(33.048 66.0959)">
<stop stop-color="#F56600" stop-opacity="0"/>
<stop offset="1" stop-color="#F56600"/>
</radialGradient>
<radialGradient id="paint11_radial_64_427" cx="0" cy="0" r="1" gradientUnits="userSpaceOnUse" gradientTransform="translate(72.3114 113.873) rotate(67.5173) scale(35.5672 71.1344)">
<stop stop-color="#F56600" stop-opacity="0"/>
<stop offset="1" stop-color="#F56600"/>
</radialGradient>
<linearGradient id="paint12_linear_64_427" x1="113.358" y1="70.8323" x2="113.358" y2="119.292" gradientUnits="userSpaceOnUse">
<stop/>
<stop offset="1" stop-opacity="0"/>
</linearGradient>
<radialGradient id="paint13_radial_64_427" cx="0" cy="0" r="1" gradientUnits="userSpaceOnUse" gradientTransform="translate(153.125 171.744) rotate(28.2177) scale(129.833 219.564)">
<stop stop-color="#FFDD33"/>
<stop offset="1" stop-color="#FFDD33" stop-opacity="0"/>
</radialGradient>
<radialGradient id="paint14_radial_64_427" cx="0" cy="0" r="1" gradientUnits="userSpaceOnUse" gradientTransform="translate(65.0822 144.947) rotate(31.151) scale(227.05 354.404)">
<stop offset="0.114583" stop-color="#FFDD33"/>
<stop offset="1" stop-color="#FFDD33" stop-opacity="0"/>
</radialGradient>
<linearGradient id="paint15_linear_64_427" x1="91.0496" y1="182.177" x2="162.486" y2="293.277" gradientUnits="userSpaceOnUse">
<stop stop-color="#FFDD33" stop-opacity="0"/>
<stop offset="1" stop-color="#FF9500"/>
</linearGradient>
<clipPath id="clip0_64_427">
<rect width="282" height="282" fill="white"/>
</clipPath>
</defs>
</svg>
