<svg width="282" height="282" viewBox="0 0 282 282" fill="none" xmlns="http://www.w3.org/2000/svg">
<path fill-rule="evenodd" clip-rule="evenodd" d="M155.613 56.3477C153.293 50.0741 150.781 43.2826 150.781 31.4672C148.637 37.9002 148.063 44.8567 148.037 47.7349C142.268 37.7434 135.74 34.5187 128.455 30.9196C121.877 27.6701 114.682 24.1154 106.869 15C109.064 25.9781 111.443 30.5523 112.358 31.4672C105.954 25.0633 86.0102 15.5489 57.4672 28.7226C72.8365 28.7226 80.3382 36.0414 82.1679 39.7007C75.6191 39.7007 69.6954 44.0761 63.5018 48.6507C56.7171 53.662 49.6086 58.9124 41 58.9124C51.7781 62.9542 59.9108 65.6733 67.9953 66.745C57.0302 82.296 66.5116 102.751 76.5939 115.215C80.8072 120.424 84.5062 125.816 87.9519 130.881C8.30235 158.143 34.0967 267.496 139.803 267.496C250.522 267.496 255.073 186.33 255.073 163.204C255.073 140.079 249.134 138.504 226.99 143.993C212.256 147.645 196.868 142.216 179.841 136.209C171.47 133.256 162.704 130.163 153.425 127.941C160.269 118.363 163.98 106.049 161.916 89.1021C161.465 85.3989 160.545 81.9867 159.233 78.8536C160.168 68.6624 157.991 62.7771 155.613 56.3477Z" fill="#FFA500"/>
<path fill-rule="evenodd" clip-rule="evenodd" d="M155.613 56.3477C153.293 50.0741 150.781 43.2826 150.781 31.4672C148.637 37.9002 148.063 44.8567 148.037 47.7349C142.268 37.7434 135.74 34.5187 128.455 30.9196C121.877 27.6701 114.682 24.1154 106.869 15C109.064 25.9781 111.443 30.5523 112.358 31.4672C105.954 25.0633 86.0102 15.5489 57.4672 28.7226C72.8365 28.7226 80.3382 36.0414 82.1679 39.7007C75.6191 39.7007 69.6954 44.0761 63.5018 48.6507C56.7171 53.662 49.6086 58.9124 41 58.9124C51.7781 62.9542 59.9108 65.6733 67.9953 66.745C57.0302 82.296 66.5116 102.751 76.5939 115.215C80.8072 120.424 84.5062 125.816 87.9519 130.881C8.30235 158.143 34.0967 267.496 139.803 267.496C250.522 267.496 255.073 186.33 255.073 163.204C255.073 140.079 249.134 138.504 226.99 143.993C212.256 147.645 196.868 142.216 179.841 136.209C171.47 133.256 162.704 130.163 153.425 127.941C160.269 118.363 163.98 106.049 161.916 89.1021C161.465 85.3989 160.545 81.9867 159.233 78.8536C160.168 68.6624 157.991 62.7771 155.613 56.3477Z" fill="url(#paint0_radial_64_310)"/>
<path fill-rule="evenodd" clip-rule="evenodd" d="M155.613 56.3477C153.293 50.0741 150.781 43.2826 150.781 31.4672C148.637 37.9002 148.063 44.8567 148.037 47.7349C142.268 37.7434 135.74 34.5187 128.455 30.9196C121.877 27.6701 114.682 24.1154 106.869 15C109.064 25.9781 111.443 30.5523 112.358 31.4672C105.954 25.0633 86.0102 15.5489 57.4672 28.7226C72.8365 28.7226 80.3382 36.0414 82.1679 39.7007C75.6191 39.7007 69.6954 44.0761 63.5018 48.6507C56.7171 53.662 49.6086 58.9124 41 58.9124C51.7781 62.9542 59.9108 65.6733 67.9953 66.745C57.0302 82.296 66.5116 102.751 76.5939 115.215C80.8072 120.424 84.5062 125.816 87.9519 130.881C8.30235 158.143 34.0967 267.496 139.803 267.496C250.522 267.496 255.073 186.33 255.073 163.204C255.073 140.079 249.134 138.504 226.99 143.993C212.256 147.645 196.868 142.216 179.841 136.209C171.47 133.256 162.704 130.163 153.425 127.941C160.269 118.363 163.98 106.049 161.916 89.1021C161.465 85.3989 160.545 81.9867 159.233 78.8536C160.168 68.6624 157.991 62.7771 155.613 56.3477Z" fill="url(#paint1_linear_64_310)"/>
<mask id="mask0_64_310" style="mask-type:alpha" maskUnits="userSpaceOnUse" x="41" y="15" width="215" height="253">
<path fill-rule="evenodd" clip-rule="evenodd" d="M155.613 56.3477C153.293 50.0741 150.781 43.2826 150.781 31.4672C148.637 37.9002 148.063 44.8567 148.037 47.7349C142.268 37.7434 135.74 34.5187 128.455 30.9196C121.877 27.6701 114.682 24.1154 106.869 15C109.064 25.9781 111.443 30.5523 112.358 31.4672C105.954 25.0633 86.0102 15.5489 57.4672 28.7226C72.8365 28.7226 80.3382 36.0414 82.1679 39.7007C75.6191 39.7007 69.6954 44.0761 63.5018 48.6507C56.7171 53.662 49.6086 58.9124 41 58.9124C51.7781 62.9542 59.9108 65.6733 67.9953 66.745C57.0302 82.296 66.5116 102.751 76.5939 115.215C80.8072 120.424 84.5062 125.816 87.9519 130.881C8.30235 158.143 34.0967 267.496 139.803 267.496C250.522 267.496 255.073 186.33 255.073 163.204C255.073 140.079 249.134 138.504 226.99 143.993C212.256 147.645 196.868 142.216 179.841 136.209C171.47 133.256 162.704 130.163 153.425 127.941C160.269 118.363 163.98 106.049 161.916 89.1021C161.465 85.3989 160.545 81.9867 159.233 78.8536C160.168 68.6624 157.991 62.7771 155.613 56.3477Z" fill="#FFA500"/>
<path fill-rule="evenodd" clip-rule="evenodd" d="M155.613 56.3477C153.293 50.0741 150.781 43.2826 150.781 31.4672C148.637 37.9002 148.063 44.8567 148.037 47.7349C142.268 37.7434 135.74 34.5187 128.455 30.9196C121.877 27.6701 114.682 24.1154 106.869 15C109.064 25.9781 111.443 30.5523 112.358 31.4672C105.954 25.0633 86.0102 15.5489 57.4672 28.7226C72.8365 28.7226 80.3382 36.0414 82.1679 39.7007C75.6191 39.7007 69.6954 44.0761 63.5018 48.6507C56.7171 53.662 49.6086 58.9124 41 58.9124C51.7781 62.9542 59.9108 65.6733 67.9953 66.745C57.0302 82.296 66.5116 102.751 76.5939 115.215C80.8072 120.424 84.5062 125.816 87.9519 130.881C8.30235 158.143 34.0967 267.496 139.803 267.496C250.522 267.496 255.073 186.33 255.073 163.204C255.073 140.079 249.134 138.504 226.99 143.993C212.256 147.645 196.868 142.216 179.841 136.209C171.47 133.256 162.704 130.163 153.425 127.941C160.269 118.363 163.98 106.049 161.916 89.1021C161.465 85.3989 160.545 81.9867 159.233 78.8536C160.168 68.6624 157.991 62.7771 155.613 56.3477Z" fill="url(#paint2_radial_64_310)"/>
</mask>
<g mask="url(#mask0_64_310)">
<path d="M200.182 267.496C156.27 272.985 126.08 240.051 128.825 201.628L260.562 168.693L260.562 267.496H200.182Z" fill="url(#paint3_linear_64_310)"/>
<path d="M106.869 157.715C128.825 153.599 142.547 143.993 153.354 127.932L200.182 135.759C200.182 135.759 167.248 163.204 106.869 157.715Z" fill="url(#paint4_linear_64_310)"/>
<path d="M98.6468 51.4911C90.4015 56.1679 64.0553 60.1192 41.0603 58.9359C41.0603 58.9359 46.9467 62.6285 51.9781 64.4015C60.6874 67.4705 68.0292 66.7752 68.0292 66.7752C84.8318 66.6963 95.442 56.553 98.6468 51.4911Z" fill="url(#paint5_linear_64_310)"/>
<path d="M57.4672 28.7226C83.8146 22.1358 97.7202 38.7859 101.38 47.9343C98.635 46.1046 90.9504 41.8964 82.1679 39.7007L57.4672 28.7226Z" fill="url(#paint6_linear_64_310)"/>
<path d="M123.336 39.7007C121.506 38.7859 116.749 35.8584 112.358 31.4672L101.38 20.4891L106.869 15C111.26 25.9781 119.676 36.0414 123.336 39.7007Z" fill="url(#paint7_linear_64_310)"/>
</g>
<path d="M79.1489 75.3795L79.1489 75.3795C80.8673 80.2891 81.0701 80.8686 84.9124 80.8686V108.314C77.2278 108.314 77.2278 119.292 61.8584 119.292C46.4891 119.292 46.4891 97.3357 46.4891 80.8686C46.4891 75.3795 46.4891 75.3796 61.8584 72.635C77.2277 69.8904 77.2278 69.8905 79.1489 75.3795Z" fill="#404040"/>
<path d="M79.1489 75.3795L79.1489 75.3795C80.8673 80.2891 81.0701 80.8686 84.9124 80.8686V108.314C77.2278 108.314 77.2278 119.292 61.8584 119.292C46.4891 119.292 46.4891 97.3357 46.4891 80.8686C46.4891 75.3795 46.4891 75.3796 61.8584 72.635C77.2277 69.8904 77.2278 69.8905 79.1489 75.3795Z" fill="url(#paint8_linear_64_310)"/>
<path d="M46.4891 138.504C46.4891 133.015 73.9343 108.314 84.9124 108.314C96.7875 108.314 95.8905 119.292 117.847 119.292C120.591 119.292 123.336 121.749 123.336 124.781C123.336 127.8 120.866 130.27 117.847 130.27C112.358 130.27 95.8905 146.737 84.9124 146.737C73.9343 146.737 65.7008 141.248 60.2117 141.248C54.7227 141.248 46.4891 143.993 46.4891 138.504Z" fill="#FF9122"/>
<path d="M46.4891 138.504C46.4891 133.015 73.9343 108.314 84.9124 108.314C96.7875 108.314 95.8905 119.292 117.847 119.292C120.591 119.292 123.336 121.749 123.336 124.781C123.336 127.8 120.866 130.27 117.847 130.27C112.358 130.27 95.8905 146.737 84.9124 146.737C73.9343 146.737 65.7008 141.248 60.2117 141.248C54.7227 141.248 46.4891 143.993 46.4891 138.504Z" fill="url(#paint9_radial_64_310)"/>
<mask id="mask1_64_310" style="mask-type:alpha" maskUnits="userSpaceOnUse" x="46" y="108" width="78" height="39">
<path d="M46.4891 138.504C46.4891 133.015 73.9343 108.314 84.9124 108.314C96.7875 108.314 95.8905 119.292 117.847 119.292C120.591 119.292 123.336 121.749 123.336 124.781C123.336 127.8 120.866 130.27 117.847 130.27C112.358 130.27 95.8905 146.737 84.9124 146.737C73.9343 146.737 65.7008 141.248 60.2117 141.248C54.7227 141.248 46.4891 143.993 46.4891 138.504Z" fill="#FF9122"/>
<path d="M46.4891 138.504C46.4891 133.015 73.9343 108.314 84.9124 108.314C96.7875 108.314 95.8905 119.292 117.847 119.292C120.591 119.292 123.336 121.749 123.336 124.781C123.336 127.8 120.866 130.27 117.847 130.27C112.358 130.27 95.8905 146.737 84.9124 146.737C73.9343 146.737 65.7008 141.248 60.2117 141.248C54.7227 141.248 46.4891 143.993 46.4891 138.504Z" fill="url(#paint10_radial_64_310)"/>
</mask>
<g mask="url(#mask1_64_310)">
<path d="M106.869 127.526C95.8906 124.781 93.146 108.314 84.9125 108.314H123.336V146.737H84.9125C101.38 143.993 106.869 127.526 106.869 127.526Z" fill="#F56600"/>
</g>
<path d="M93.146 75.3795L93.146 75.3795C90.6912 80.2891 90.4015 80.8686 84.9124 80.8686V108.314C95.8905 108.314 95.8905 119.292 117.847 119.292C139.803 119.292 139.803 97.3357 139.803 80.8686C139.803 75.3795 139.803 75.3796 117.847 72.635C95.8906 69.8904 95.8905 69.8905 93.146 75.3795Z" fill="#404040"/>
<path d="M93.146 75.3795L93.146 75.3795C90.6912 80.2891 90.4015 80.8686 84.9124 80.8686V108.314C95.8905 108.314 95.8905 119.292 117.847 119.292C139.803 119.292 139.803 97.3357 139.803 80.8686C139.803 75.3795 139.803 75.3796 117.847 72.635C95.8906 69.8904 95.8905 69.8905 93.146 75.3795Z" fill="url(#paint11_linear_64_310)"/>
<mask id="mask2_64_310" style="mask-type:alpha" maskUnits="userSpaceOnUse" x="128" y="146" width="137" height="100">
<path d="M128.825 207.117C125.937 184.016 141.075 146.737 191.949 154.971C238.71 162.539 238.606 149.482 255.073 146.737C271.54 143.993 269.18 216.293 216.648 237.307C175.482 253.774 133.971 248.285 128.825 207.117Z" fill="#FFA500"/>
<path d="M128.825 207.117C125.937 184.016 141.075 146.737 191.949 154.971C238.71 162.539 238.606 149.482 255.073 146.737C271.54 143.993 269.18 216.293 216.648 237.307C175.482 253.774 133.971 248.285 128.825 207.117Z" fill="url(#paint12_radial_64_310)"/>
</mask>
<g mask="url(#mask2_64_310)">
<rect x="41" y="124.781" width="225.051" height="142.715" fill="#FFA500"/>
<rect x="41" y="124.781" width="225.051" height="142.715" fill="url(#paint13_radial_64_310)"/>
<rect x="41" y="124.781" width="225.051" height="142.715" fill="url(#paint14_linear_64_310)"/>
</g>
<defs>
<radialGradient id="paint0_radial_64_310" cx="0" cy="0" r="1" gradientUnits="userSpaceOnUse" gradientTransform="translate(62.9562 50.6788) rotate(48.3477) scale(278.108 486.938)">
<stop offset="0.114583" stop-color="#FFDD33"/>
<stop offset="1" stop-color="#FFDD33" stop-opacity="0"/>
</radialGradient>
<linearGradient id="paint1_linear_64_310" x1="87.6569" y1="116.547" x2="224.376" y2="230.866" gradientUnits="userSpaceOnUse">
<stop stop-color="#FFDD33" stop-opacity="0"/>
<stop offset="1" stop-color="#FF9500"/>
</linearGradient>
<radialGradient id="paint2_radial_64_310" cx="0" cy="0" r="1" gradientUnits="userSpaceOnUse" gradientTransform="translate(71.1898 45.1898) rotate(50.3759) scale(276.91 484.841)">
<stop stop-color="#FFDD33"/>
<stop offset="1" stop-color="#FFDD33" stop-opacity="0"/>
</radialGradient>
<linearGradient id="paint3_linear_64_310" x1="205.671" y1="226.328" x2="207.567" y2="266.367" gradientUnits="userSpaceOnUse">
<stop stop-color="#FF8000"/>
<stop offset="1" stop-color="#F77B00" stop-opacity="0"/>
<stop offset="1" stop-color="#FF8000" stop-opacity="0"/>
</linearGradient>
<linearGradient id="paint4_linear_64_310" x1="161.627" y1="128.917" x2="170.031" y2="149.544" gradientUnits="userSpaceOnUse">
<stop stop-color="#FF8000"/>
<stop offset="1" stop-color="#F77B00" stop-opacity="0"/>
<stop offset="1" stop-color="#FF8000" stop-opacity="0"/>
</linearGradient>
<linearGradient id="paint5_linear_64_310" x1="41.0603" y1="59.2743" x2="95.5317" y2="70.1873" gradientUnits="userSpaceOnUse">
<stop stop-color="#FF8000"/>
<stop offset="1" stop-color="#F75900" stop-opacity="0"/>
<stop offset="1" stop-color="#FF8000" stop-opacity="0"/>
</linearGradient>
<linearGradient id="paint6_linear_64_310" x1="57.4672" y1="36.698" x2="100.002" y2="42.0338" gradientUnits="userSpaceOnUse">
<stop stop-color="#FF8000"/>
<stop offset="1" stop-color="#F75900" stop-opacity="0"/>
<stop offset="1" stop-color="#FF8000" stop-opacity="0"/>
</linearGradient>
<linearGradient id="paint7_linear_64_310" x1="101.38" y1="26.3023" x2="122.922" y2="27.4355" gradientUnits="userSpaceOnUse">
<stop stop-color="#FF8000"/>
<stop offset="1" stop-color="#F75900" stop-opacity="0"/>
<stop offset="1" stop-color="#FF8000" stop-opacity="0"/>
</linearGradient>
<linearGradient id="paint8_linear_64_310" x1="65.7008" y1="70.8323" x2="65.7008" y2="119.292" gradientUnits="userSpaceOnUse">
<stop/>
<stop offset="1" stop-opacity="0"/>
</linearGradient>
<radialGradient id="paint9_radial_64_310" cx="0" cy="0" r="1" gradientUnits="userSpaceOnUse" gradientTransform="translate(71.3114 113.873) rotate(65.6974) scale(33.048 66.0959)">
<stop stop-color="#F56600" stop-opacity="0"/>
<stop offset="1" stop-color="#F56600"/>
</radialGradient>
<radialGradient id="paint10_radial_64_310" cx="0" cy="0" r="1" gradientUnits="userSpaceOnUse" gradientTransform="translate(71.3114 113.873) rotate(67.5173) scale(35.5672 71.1344)">
<stop stop-color="#F56600" stop-opacity="0"/>
<stop offset="1" stop-color="#F56600"/>
</radialGradient>
<linearGradient id="paint11_linear_64_310" x1="112.358" y1="70.8323" x2="112.358" y2="119.292" gradientUnits="userSpaceOnUse">
<stop/>
<stop offset="1" stop-opacity="0"/>
</linearGradient>
<radialGradient id="paint12_radial_64_310" cx="0" cy="0" r="1" gradientUnits="userSpaceOnUse" gradientTransform="translate(152.125 171.744) rotate(28.2177) scale(129.833 219.564)">
<stop stop-color="#FFDD33"/>
<stop offset="1" stop-color="#FFDD33" stop-opacity="0"/>
</radialGradient>
<radialGradient id="paint13_radial_64_310" cx="0" cy="0" r="1" gradientUnits="userSpaceOnUse" gradientTransform="translate(64.0822 144.947) rotate(31.151) scale(227.05 354.404)">
<stop offset="0.114583" stop-color="#FFDD33"/>
<stop offset="1" stop-color="#FFDD33" stop-opacity="0"/>
</radialGradient>
<linearGradient id="paint14_linear_64_310" x1="90.0496" y1="182.177" x2="161.486" y2="293.277" gradientUnits="userSpaceOnUse">
<stop stop-color="#FFDD33" stop-opacity="0"/>
<stop offset="1" stop-color="#FF9500"/>
</linearGradient>
</defs>
</svg>
